<?xml version="1.0" standalone="no"?>
<!DOCTYPE svg PUBLIC "-//W3C//DTD SVG 20010904//EN"
 "http://www.w3.org/TR/2001/REC-SVG-20010904/DTD/svg10.dtd">
<svg version="1.0" xmlns="http://www.w3.org/2000/svg"
 width="312.000000pt" height="473.000000pt" viewBox="0 0 312.000000 473.000000"
 preserveAspectRatio="xMidYMid meet">

<g transform="translate(0.000000,473.000000) scale(0.100000,-0.100000)"
fill="#000000" stroke="none">
<path d="M1355 4202 l-280 -127 -182 -320 -183 -320 0 -660 0 -660 145 -124
c80 -68 145 -127 145 -130 0 -3 -65 -78 -145 -166 l-145 -160 3 -240 2 -240
800 0 800 0 2 240 3 240 -86 95 c-48 52 -115 127 -150 166 l-63 71 100 246
101 247 -281 349 -281 350 0 100 c0 56 3 101 7 101 4 0 26 -19 49 -41 40 -40
49 -43 217 -85 278 -68 252 -57 289 -119 18 -30 40 -55 48 -55 15 0 220 57
226 63 2 1 19 43 38 92 l34 90 -28 30 c-15 17 -124 139 -244 273 l-216 243 0
47 -1 47 -209 150 -210 149 0 93 c0 68 -3 93 -12 92 -7 0 -139 -57 -293 -127z
m138 -99 c-174 -276 -194 -306 -201 -299 -3 4 -45 62 -93 129 -85 117 -87 122
-66 132 294 133 453 204 459 204 4 1 -40 -74 -99 -166z m137 90 l-1 -58 -106
-110 c-59 -60 -97 -94 -85 -75 112 180 187 299 190 300 1 0 2 -26 2 -57z m140
-168 c30 -21 57 -40 59 -42 2 -2 2 -5 -1 -9 -8 -7 -450 -165 -454 -162 -1 2
61 70 138 151 l140 148 32 -24 c17 -12 56 -40 86 -62z m-566 -158 l76 -108
-45 -237 c-25 -130 -49 -244 -52 -252 -5 -12 -70 615 -72 700 -1 29 -3 31 93
-103z m-193 -344 c-26 -243 -49 -445 -52 -448 -4 -3 -191 317 -207 356 -3 7
299 542 303 537 2 -2 -18 -202 -44 -445z m1019 308 c0 -3 -38 -46 -85 -96 -97
-104 -94 -108 -70 80 8 66 15 121 15 122 0 2 32 -20 70 -48 39 -28 70 -54 70
-58z m-216 87 c-4 -7 -45 -63 -90 -125 l-83 -112 -48 14 c-26 8 -90 27 -142
42 -52 15 -90 28 -85 30 310 114 441 161 447 162 5 1 5 -5 1 -11z m19 -161
c-11 -99 -20 -137 -29 -137 -7 0 -39 11 -70 25 l-56 25 34 47 c101 140 132
182 135 180 1 -2 -5 -65 -14 -140z m-713 -265 c16 -183 30 -344 30 -357 0 -21
-12 -31 -70 -60 -38 -19 -73 -35 -78 -35 -6 0 28 352 79 810 3 27 8 -22 39
-358z m930 279 c0 -11 -62 -61 -75 -61 -5 0 6 16 25 35 34 35 50 43 50 26z
m-543 -87 c64 -19 118 -36 120 -38 2 -2 2 -65 1 -140 l-3 -136 -130 166 c-155
200 -154 198 -126 189 12 -4 74 -22 138 -41z m539 -241 c-2 -3 -45 28 -95 68
-50 40 -88 76 -84 80 5 3 46 32 93 63 l85 56 3 -131 c1 -73 1 -134 -2 -136z
m-547 33 l131 -169 0 -132 c0 -132 -6 -195 -20 -195 -5 0 -181 468 -248 660
-8 23 -3 17 137 -164z m646 31 c31 -76 56 -140 54 -142 -2 -2 -29 7 -59 20
l-55 23 -3 123 c-1 68 -1 121 1 118 3 -2 30 -66 62 -142z m174 -72 c88 -99
159 -181 157 -182 -7 -8 -220 87 -228 101 -12 22 -118 277 -118 284 0 9 8 0
189 -203z m-536 153 c15 -5 27 -11 27 -12 0 -11 -50 -280 -53 -282 -4 -4 -77
304 -77 324 0 9 9 8 38 -4 20 -9 49 -20 65 -26z m-312 -347 c65 -179 118 -325
116 -326 -5 -5 -189 -36 -192 -33 -1 2 -14 143 -29 313 -14 171 -29 335 -31
365 -7 71 -11 81 136 -319z m-145 19 c16 -187 27 -340 24 -339 -3 0 -40 43
-83 94 l-77 94 47 246 c26 135 50 245 53 245 3 0 19 -153 36 -340z m689 156
l29 -24 -29 -91 c-16 -50 -31 -91 -35 -91 -3 0 -27 66 -54 148 -27 81 -51 154
-54 162 -5 12 33 -15 143 -104z m-120 -76 c30 -90 53 -166 50 -168 -5 -5 -147
28 -157 37 -4 3 5 72 19 153 15 81 28 146 30 144 2 -2 28 -77 58 -166z m-175
-59 c0 -10 -8 -7 -25 9 -23 22 -25 30 -24 109 l0 86 24 -95 c13 -52 24 -101
25 -109z m426 64 l57 -25 -24 -18 c-70 -53 -159 -113 -159 -106 0 19 55 174
62 174 4 0 33 -11 64 -25z m-1301 -152 c46 -81 82 -149 80 -151 -1 -1 -41 12
-89 30 l-86 32 0 125 c0 68 3 122 6 118 4 -3 44 -73 89 -154z m1355 5 c-7 -40
-16 -77 -20 -81 -7 -8 -150 23 -150 32 0 8 174 130 179 125 1 -1 -3 -36 -9
-76z m219 37 c67 -26 101 -45 100 -55 0 -22 -34 -102 -42 -101 -4 0 -46 46
-94 102 -48 56 -82 100 -76 98 5 -2 56 -22 112 -44z m-60 -79 c51 -59 90 -110
88 -113 -6 -5 -139 -43 -153 -43 -7 0 -14 33 -18 88 -4 48 -9 110 -12 137 -4
28 -4 48 -1 45 2 -3 46 -54 96 -114z m-119 -48 c-1 -47 -2 -51 -14 -35 -12 16
-12 35 0 75 8 27 14 9 14 -40z m-1301 -113 c1 -2 -40 -54 -93 -115 l-96 -111
0 149 0 150 93 -35 c50 -19 94 -36 96 -38z m359 -68 l55 -68 -213 -214 c-118
-118 -216 -212 -218 -210 -2 2 54 146 124 320 l129 316 33 -38 c19 -21 59 -69
90 -106z m-173 114 c-13 -42 -214 -525 -215 -516 0 10 67 404 75 442 3 13 28
34 67 56 74 42 81 43 73 18z m591 -163 l55 -113 -70 71 -70 70 11 42 c6 23 12
42 14 42 2 0 29 -51 60 -112z m-816 -200 c-22 -134 -42 -247 -43 -252 -2 -5
-27 57 -56 138 -51 143 -52 147 -34 169 57 73 167 196 171 193 2 -3 -15 -114
-38 -248z m909 143 c53 -66 57 -76 42 -100 -7 -10 -22 11 -56 80 -26 52 -45
92 -42 89 3 -3 28 -34 56 -69z m-232 47 c-13 -34 -281 -588 -283 -586 -2 4 97
552 102 557 3 3 142 34 178 40 4 0 6 -5 3 -11z m228 -200 c0 -9 -488 -448
-493 -444 -2 3 225 482 283 595 l25 51 93 -96 c50 -53 92 -101 92 -106z m-511
-184 c-31 -170 -57 -310 -59 -312 -1 -2 -65 30 -141 71 -77 41 -154 82 -172
91 l-32 17 227 223 c126 123 229 223 230 222 2 -1 -23 -141 -53 -312z m677
134 c6 -12 -7 -7 -41 14 -60 37 -63 41 -54 70 6 21 9 20 46 -22 21 -25 43 -53
49 -62z m-14 -44 l86 -56 -99 -99 c-54 -54 -101 -99 -104 -99 -4 0 14 297 19
308 3 6 17 -2 98 -54z m-148 -126 l-12 -165 -229 -52 c-127 -29 -232 -50 -235
-48 -2 3 105 102 238 221 133 119 244 214 246 212 2 -2 -2 -77 -8 -168z
m-1009 19 l42 -117 -46 -78 -46 -77 0 199 c0 110 2 197 4 195 2 -2 23 -57 46
-122z m1324 -37 c32 -41 43 -62 34 -65 -7 -2 -67 -16 -133 -30 -66 -15 -127
-28 -135 -31 -8 -3 28 38 80 91 52 52 97 95 101 95 3 0 27 -27 53 -60z m42
-118 c-3 -9 -42 -105 -85 -212 l-80 -195 -34 75 c-19 41 -56 120 -81 174 -25
55 -45 100 -43 102 3 4 296 71 315 73 8 1 11 -6 8 -17z m-1145 -69 c82 -43
149 -81 149 -84 0 -5 -402 -21 -406 -16 -3 3 100 177 105 177 2 0 71 -35 152
-77z m779 -178 l0 -173 -237 115 c-131 63 -241 118 -246 122 -8 8 463 120 476
114 4 -2 7 -82 7 -178z m104 -32 c36 -78 66 -144 66 -147 0 -3 -31 -6 -70 -6
l-70 0 0 152 c0 83 2 149 4 147 3 -2 34 -68 70 -146z m-786 -28 c-78 -98 -94
-113 -107 -102 -9 6 -65 55 -125 107 l-110 95 120 5 c65 4 163 7 217 8 l97 2
-92 -115z m164 -15 l36 -110 -125 0 c-122 0 -125 0 -112 19 36 51 155 200 159
201 3 0 22 -49 42 -110z m233 1 l220 -109 -190 -1 -191 -1 -36 110 c-20 61
-33 110 -30 110 4 0 106 -50 227 -109z m-196 -173 c0 -18 -6 -80 -12 -138
l-12 -105 -110 129 c-60 71 -111 132 -113 137 -2 5 53 9 122 9 l126 0 -1 -32z
m421 18 c-20 -19 -403 -266 -407 -263 -3 4 16 220 23 255 4 22 5 22 201 22
170 0 195 -2 183 -14z m240 -3 c0 -26 -21 -196 -26 -213 -5 -13 -104 198 -104
221 0 5 29 9 65 9 54 0 65 -3 65 -17z m-826 -145 l116 -138 -252 0 -252 0 40
43 c22 23 80 86 129 140 48 54 91 96 95 95 4 -2 60 -65 124 -140z m719 6 c32
-75 56 -138 54 -140 -2 -3 -127 -3 -277 -2 l-274 3 210 137 c115 75 214 137
219 137 6 0 36 -61 68 -135z m309 -56 l80 -88 -142 0 -142 0 5 23 c3 12 11 73
18 136 l13 114 44 -49 c25 -27 80 -88 124 -136z m-938 -136 c-5 -5 -74 -60
-154 -123 -80 -63 -189 -150 -242 -192 l-98 -78 0 201 0 200 252 0 c139 0 248
-4 242 -8z m686 3 c0 -13 -163 -395 -169 -395 -3 0 -96 90 -206 200 l-200 200
288 0 c158 0 287 -2 287 -5z m350 -186 l0 -191 -102 138 c-56 77 -119 163
-140 192 l-39 52 141 0 140 0 0 -191z m-796 -227 c-131 -1 -239 0 -241 2 -4 4
62 354 73 385 3 10 72 -52 205 -185 l199 -199 -236 -3z m646 183 l131 -180
-227 -3 c-125 -1 -229 -1 -231 1 -2 2 34 93 79 201 77 188 82 196 99 179 9
-10 76 -99 149 -198z m-889 11 c-21 -103 -41 -189 -43 -192 -3 -2 -96 -3 -208
-2 l-203 3 243 193 c134 106 245 191 247 189 2 -2 -14 -88 -36 -191z"/>
<path d="M357 883 c-12 -11 -8 -23 8 -23 8 0 15 7 15 15 0 16 -12 20 -23 8z"/>
<path d="M396 883 c-11 -11 -6 -23 9 -23 8 0 15 4 15 9 0 13 -16 22 -24 14z"/>
<path d="M574 879 c-6 -10 5 -15 39 -17 16 -1 27 3 27 11 0 15 -57 19 -66 6z"/>
<path d="M790 874 c0 -8 12 -12 30 -12 17 1 30 6 30 13 0 6 -13 12 -30 12 -18
0 -30 -6 -30 -13z"/>
<path d="M997 883 c-12 -11 -8 -23 8 -23 8 0 15 7 15 15 0 16 -12 20 -23 8z"/>
<path d="M1036 883 c-11 -11 -6 -23 9 -23 8 0 15 4 15 9 0 13 -16 22 -24 14z"/>
<path d="M1070 874 c0 -8 12 -12 30 -12 17 1 30 6 30 13 0 6 -13 12 -30 12
-18 0 -30 -6 -30 -13z"/>
<path d="M1277 883 c-12 -11 -8 -23 8 -23 8 0 15 7 15 15 0 16 -12 20 -23 8z"/>
<path d="M1316 883 c-11 -11 -6 -23 9 -23 8 0 15 4 15 9 0 13 -16 22 -24 14z"/>
<path d="M1427 883 c-12 -11 -8 -23 8 -23 8 0 15 7 15 15 0 16 -12 20 -23 8z"/>
<path d="M1460 876 c0 -9 7 -16 16 -16 9 0 14 5 12 12 -6 18 -28 21 -28 4z"/>
<path d="M1596 883 c-11 -11 -6 -23 9 -23 8 0 15 4 15 9 0 13 -16 22 -24 14z"/>
<path d="M1630 874 c0 -8 12 -12 30 -12 17 1 30 6 30 13 0 6 -13 12 -30 12
-18 0 -30 -6 -30 -13z"/>
<path d="M1707 883 c-12 -11 -8 -23 8 -23 8 0 15 7 15 15 0 16 -12 20 -23 8z"/>
<path d="M1837 883 c-12 -11 -8 -23 8 -23 8 0 15 7 15 15 0 16 -12 20 -23 8z"/>
<path d="M1876 883 c-11 -11 -6 -23 9 -23 8 0 15 4 15 9 0 13 -16 22 -24 14z"/>
<path d="M1910 874 c0 -8 12 -12 30 -12 17 1 30 6 30 13 0 6 -13 12 -30 12
-18 0 -30 -6 -30 -13z"/>
<path d="M2156 883 c-11 -11 -6 -23 9 -23 8 0 15 4 15 9 0 13 -16 22 -24 14z"/>
<path d="M2190 874 c0 -8 12 -12 30 -12 17 1 30 6 30 13 0 6 -13 12 -30 12
-18 0 -30 -6 -30 -13z"/>
<path d="M2267 883 c-12 -11 -8 -23 8 -23 8 0 15 7 15 15 0 16 -12 20 -23 8z"/>
<path d="M2300 876 c0 -9 7 -16 16 -16 9 0 14 5 12 12 -6 18 -28 21 -28 4z"/>
<path d="M2397 883 c-12 -11 -8 -23 8 -23 8 0 15 7 15 15 0 16 -12 20 -23 8z"/>
<path d="M2437 883 c-2 -5 -4 -20 -5 -34 -1 -25 0 -26 68 -26 49 0 70 4 70 13
0 8 -17 12 -57 11 -49 -2 -58 1 -55 15 3 17 -14 34 -21 21z"/>
<path d="M2470 874 c0 -8 12 -12 30 -12 17 1 30 6 30 13 0 6 -13 12 -30 12
-18 0 -30 -6 -30 -13z"/>
<path d="M2547 883 c-12 -11 -8 -23 8 -23 8 0 15 7 15 15 0 16 -12 20 -23 8z"/>
<path d="M2580 876 c0 -9 7 -16 16 -16 17 0 14 22 -4 28 -7 2 -12 -3 -12 -12z"/>
<path d="M357 844 c-8 -8 1 -24 14 -24 5 0 9 7 9 15 0 15 -12 20 -23 9z"/>
<path d="M390 835 c0 -8 7 -15 15 -15 8 0 15 7 15 15 0 8 -7 15 -15 15 -8 0
-15 -7 -15 -15z"/>
<path d="M574 838 c-6 -10 -7 -10 34 -13 21 -2 32 2 32 11 0 14 -57 17 -66 2z"/>
<path d="M750 835 c0 -8 7 -15 15 -15 8 0 15 7 15 15 0 8 -7 15 -15 15 -8 0
-15 -7 -15 -15z"/>
<path d="M790 835 c0 -6 22 -11 50 -12 34 0 50 3 50 12 0 9 -16 12 -50 12 -28
-1 -50 -6 -50 -12z"/>
<path d="M997 844 c-8 -8 1 -24 14 -24 5 0 9 7 9 15 0 15 -12 20 -23 9z"/>
<path d="M1030 835 c0 -8 7 -15 15 -15 8 0 15 7 15 15 0 8 -7 15 -15 15 -8 0
-15 -7 -15 -15z"/>
<path d="M1070 835 c0 -6 22 -11 50 -12 34 0 50 3 50 12 0 9 -16 12 -50 12
-28 -1 -50 -6 -50 -12z"/>
<path d="M1180 835 c0 -8 7 -15 15 -15 8 0 15 7 15 15 0 8 -7 15 -15 15 -8 0
-15 -7 -15 -15z"/>
<path d="M1277 844 c-8 -8 1 -24 14 -24 5 0 9 7 9 15 0 15 -12 20 -23 9z"/>
<path d="M1310 835 c0 -8 7 -15 15 -15 8 0 15 7 15 15 0 8 -7 15 -15 15 -8 0
-15 -7 -15 -15z"/>
<path d="M1420 835 c0 -8 7 -15 15 -15 8 0 15 7 15 15 0 8 -7 15 -15 15 -8 0
-15 -7 -15 -15z"/>
<path d="M1460 835 c0 -8 7 -15 15 -15 8 0 15 7 15 15 0 8 -7 15 -15 15 -8 0
-15 -7 -15 -15z"/>
<path d="M1557 844 c-8 -8 1 -24 14 -24 5 0 9 7 9 15 0 15 -12 20 -23 9z"/>
<path d="M1590 835 c0 -8 7 -15 15 -15 8 0 15 7 15 15 0 8 -7 15 -15 15 -8 0
-15 -7 -15 -15z"/>
<path d="M1630 835 c0 -6 22 -11 50 -12 34 0 50 3 50 12 0 9 -16 12 -50 12
-28 -1 -50 -6 -50 -12z"/>
<path d="M1740 835 c0 -8 7 -15 15 -15 8 0 15 7 15 15 0 8 -7 15 -15 15 -8 0
-15 -7 -15 -15z"/>
<path d="M1837 844 c-8 -8 1 -24 14 -24 5 0 9 7 9 15 0 15 -12 20 -23 9z"/>
<path d="M1870 835 c0 -8 7 -15 15 -15 8 0 15 7 15 15 0 8 -7 15 -15 15 -8 0
-15 -7 -15 -15z"/>
<path d="M1910 835 c0 -6 22 -11 50 -12 34 0 50 3 50 12 0 9 -16 12 -50 12
-28 -1 -50 -6 -50 -12z"/>
<path d="M2020 835 c0 -8 7 -15 15 -15 8 0 15 7 15 15 0 8 -7 15 -15 15 -8 0
-15 -7 -15 -15z"/>
<path d="M2117 844 c-8 -8 1 -24 14 -24 5 0 9 7 9 15 0 15 -12 20 -23 9z"/>
<path d="M2150 835 c0 -8 7 -15 15 -15 8 0 15 7 15 15 0 8 -7 15 -15 15 -8 0
-15 -7 -15 -15z"/>
<path d="M2190 835 c0 -6 22 -11 50 -12 34 0 50 3 50 12 0 9 -16 12 -50 12
-28 -1 -50 -6 -50 -12z"/>
<path d="M2300 835 c0 -8 7 -15 15 -15 8 0 15 7 15 15 0 8 -7 15 -15 15 -8 0
-15 -7 -15 -15z"/>
<path d="M2397 844 c-8 -8 1 -24 14 -24 5 0 9 7 9 15 0 15 -12 20 -23 9z"/>
<path d="M2580 835 c0 -8 7 -15 15 -15 8 0 15 7 15 15 0 8 -7 15 -15 15 -8 0
-15 -7 -15 -15z"/>
<path d="M353 780 c0 -18 6 -30 14 -30 8 0 13 12 13 30 0 18 -5 30 -13 30 -8
0 -14 -12 -14 -30z"/>
<path d="M393 780 c0 -16 6 -30 12 -30 6 0 12 14 12 30 0 17 -6 30 -12 30 -6
0 -12 -13 -12 -30z"/>
<path d="M579 803 c-1 -1 -2 -13 -2 -25 -1 -19 4 -24 29 -26 28 -3 31 0 32 27
1 26 -2 30 -29 29 -16 -1 -29 -3 -30 -5z m41 -23 c0 -5 -4 -10 -10 -10 -5 0
-10 5 -10 10 0 6 5 10 10 10 6 0 10 -4 10 -10z"/>
<path d="M713 780 c0 -18 6 -30 14 -30 8 0 13 12 13 30 0 18 -5 30 -13 30 -8
0 -14 -12 -14 -30z"/>
<path d="M754 705 c0 -74 4 -105 12 -105 8 0 12 19 11 57 l-2 57 45 0 45 0 -1
-57 c0 -39 3 -57 12 -57 8 0 12 18 11 58 -2 54 -1 57 22 54 16 -3 22 1 19 10
-3 7 -13 12 -22 12 -9 -1 -16 4 -16 11 0 8 8 11 18 8 15 -4 19 1 19 26 0 36
-23 42 -30 9 l-4 -23 -2 23 c0 12 -7 22 -15 22 -10 0 -14 -11 -13 -37 l2 -38
-45 0 -45 0 2 38 c1 24 -3 37 -11 37 -10 0 -13 -26 -12 -105z"/>
<path d="M993 780 c0 -18 6 -30 14 -30 8 0 13 12 13 30 0 18 -5 30 -13 30 -8
0 -14 -12 -14 -30z"/>
<path d="M1033 780 c0 -16 6 -30 12 -30 6 0 12 14 12 30 0 17 -6 30 -12 30 -6
0 -12 -13 -12 -30z"/>
<path d="M1143 780 c0 -16 6 -30 12 -30 7 0 12 14 13 30 0 18 -4 30 -12 30 -7
0 -13 -12 -13 -30z"/>
<path d="M1180 780 c0 -18 5 -30 13 -30 8 0 14 12 14 30 0 18 -6 30 -14 30 -8
0 -13 -12 -13 -30z"/>
<path d="M1273 780 c0 -18 6 -30 14 -30 8 0 13 12 13 30 0 18 -5 30 -13 30 -8
0 -14 -12 -14 -30z"/>
<path d="M1313 780 c0 -16 6 -30 12 -30 6 0 12 14 12 30 0 17 -6 30 -12 30 -6
0 -12 -13 -12 -30z"/>
<path d="M1423 780 c0 -16 6 -30 12 -30 7 0 12 14 13 30 0 18 -4 30 -12 30 -7
0 -13 -12 -13 -30z"/>
<path d="M1460 780 c0 -18 5 -30 13 -30 8 0 14 12 14 30 0 18 -6 30 -14 30 -8
0 -13 -12 -13 -30z"/>
<path d="M1553 780 c0 -18 6 -30 14 -30 8 0 13 12 13 30 0 18 -5 30 -13 30 -8
0 -14 -12 -14 -30z"/>
<path d="M1593 780 c0 -16 6 -30 12 -30 6 0 12 14 12 30 0 17 -6 30 -12 30 -6
0 -12 -13 -12 -30z"/>
<path d="M1703 780 c0 -16 6 -30 12 -30 7 0 12 14 13 30 0 18 -4 30 -12 30 -7
0 -13 -12 -13 -30z"/>
<path d="M1740 780 c0 -18 5 -30 13 -30 8 0 14 12 14 30 0 18 -6 30 -14 30 -8
0 -13 -12 -13 -30z"/>
<path d="M1833 780 c0 -18 6 -30 14 -30 8 0 13 12 13 30 0 18 -5 30 -13 30 -8
0 -14 -12 -14 -30z"/>
<path d="M1873 780 c0 -16 6 -30 12 -30 6 0 12 14 12 30 0 17 -6 30 -12 30 -6
0 -12 -13 -12 -30z"/>
<path d="M1983 780 c0 -16 6 -30 12 -30 7 0 12 14 13 30 0 18 -4 30 -12 30 -7
0 -13 -12 -13 -30z"/>
<path d="M2020 780 c0 -18 5 -30 13 -30 8 0 14 12 14 30 0 18 -6 30 -14 30 -8
0 -13 -12 -13 -30z"/>
<path d="M2113 780 c0 -18 6 -30 14 -30 8 0 13 12 13 30 0 18 -5 30 -13 30 -8
0 -14 -12 -14 -30z"/>
<path d="M2153 780 c0 -16 6 -30 12 -30 6 0 12 14 12 30 0 17 -6 30 -12 30 -6
0 -12 -13 -12 -30z"/>
<path d="M2393 780 c0 -18 6 -30 14 -30 8 0 13 12 13 30 0 18 -5 30 -13 30 -8
0 -14 -12 -14 -30z"/>
<path d="M2433 705 c1 -82 4 -105 15 -105 10 0 13 14 11 57 l-3 58 57 -2 c41
-1 57 2 57 12 0 10 -16 13 -57 12 l-58 -2 2 38 c1 24 -3 37 -11 37 -10 0 -13
-26 -13 -105z"/>
<path d="M790 763 c0 -8 12 -13 30 -13 18 0 30 5 30 13 0 8 -12 14 -30 14 -18
0 -30 -6 -30 -14z"/>
<path d="M1070 763 c0 -8 12 -13 30 -13 18 0 30 5 30 13 0 8 -12 14 -30 14
-18 0 -30 -6 -30 -14z"/>
<path d="M1350 763 c0 -8 12 -13 30 -13 18 0 30 5 30 13 0 8 -12 14 -30 14
-18 0 -30 -6 -30 -14z"/>
<path d="M1910 763 c0 -8 12 -13 30 -13 18 0 30 5 30 13 0 8 -12 14 -30 14
-18 0 -30 -6 -30 -14z"/>
<path d="M2190 763 c0 -8 12 -13 30 -13 18 0 30 5 30 13 0 8 -12 14 -30 14
-18 0 -30 -6 -30 -14z"/>
<path d="M2266 773 c-11 -11 -6 -23 9 -23 8 0 15 4 15 9 0 13 -16 22 -24 14z"/>
<path d="M2470 763 c0 -8 12 -13 30 -13 18 0 30 5 30 13 0 8 -12 14 -30 14
-18 0 -30 -6 -30 -14z"/>
<path d="M2546 773 c-11 -11 -6 -23 9 -23 8 0 15 4 15 9 0 13 -16 22 -24 14z"/>
<path d="M357 734 c-8 -8 1 -24 14 -24 5 0 9 7 9 15 0 15 -12 20 -23 9z"/>
<path d="M390 725 c0 -8 7 -15 15 -15 8 0 15 7 15 15 0 8 -7 15 -15 15 -8 0
-15 -7 -15 -15z"/>
<path d="M464 729 c-6 -10 5 -15 39 -17 17 -1 27 3 27 12 0 16 -57 20 -66 5z"/>
<path d="M574 729 c-6 -10 5 -15 39 -17 16 -1 27 3 27 11 0 15 -57 19 -66 6z"/>
<path d="M717 734 c-8 -8 1 -24 14 -24 5 0 9 7 9 15 0 15 -12 20 -23 9z"/>
<path d="M997 734 c-8 -8 1 -24 14 -24 5 0 9 7 9 15 0 15 -12 20 -23 9z"/>
<path d="M1030 725 c0 -8 7 -15 15 -15 8 0 15 7 15 15 0 8 -7 15 -15 15 -8 0
-15 -7 -15 -15z"/>
<path d="M1070 724 c0 -9 10 -13 30 -11 39 3 39 21 0 23 -19 1 -30 -3 -30 -12z"/>
<path d="M1277 734 c-8 -8 1 -24 14 -24 5 0 9 7 9 15 0 15 -12 20 -23 9z"/>
<path d="M1310 725 c0 -8 7 -15 15 -15 8 0 15 7 15 15 0 8 -7 15 -15 15 -8 0
-15 -7 -15 -15z"/>
<path d="M1350 724 c0 -7 19 -11 50 -11 33 0 50 4 50 12 0 9 -16 12 -50 12
-30 -1 -50 -6 -50 -13z"/>
<path d="M1460 726 c0 -9 7 -16 16 -16 9 0 14 5 12 12 -6 18 -28 21 -28 4z"/>
<path d="M1557 734 c-8 -8 1 -24 14 -24 5 0 9 7 9 15 0 15 -12 20 -23 9z"/>
<path d="M1590 725 c0 -8 7 -15 15 -15 8 0 15 7 15 15 0 8 -7 15 -15 15 -8 0
-15 -7 -15 -15z"/>
<path d="M1700 725 c0 -8 7 -15 15 -15 8 0 15 7 15 15 0 8 -7 15 -15 15 -8 0
-15 -7 -15 -15z"/>
<path d="M1740 726 c0 -9 7 -16 16 -16 9 0 14 5 12 12 -6 18 -28 21 -28 4z"/>
<path d="M1837 734 c-8 -8 1 -24 14 -24 5 0 9 7 9 15 0 15 -12 20 -23 9z"/>
<path d="M1870 725 c0 -8 7 -15 15 -15 8 0 15 7 15 15 0 8 -7 15 -15 15 -8 0
-15 -7 -15 -15z"/>
<path d="M1910 724 c0 -9 10 -13 30 -11 39 3 39 21 0 23 -19 1 -30 -3 -30 -12z"/>
<path d="M2150 725 c0 -8 7 -15 15 -15 8 0 15 7 15 15 0 8 -7 15 -15 15 -8 0
-15 -7 -15 -15z"/>
<path d="M2190 724 c0 -7 19 -11 50 -11 33 0 50 4 50 12 0 9 -16 12 -50 12
-30 -1 -50 -6 -50 -13z"/>
<path d="M2300 726 c0 -9 7 -16 16 -16 9 0 14 5 12 12 -6 18 -28 21 -28 4z"/>
<path d="M2397 734 c-8 -8 1 -24 14 -24 5 0 9 7 9 15 0 15 -12 20 -23 9z"/>
<path d="M354 650 c0 -31 4 -50 12 -50 7 0 11 19 11 50 0 31 -4 50 -11 50 -8
0 -12 -19 -12 -50z"/>
<path d="M394 650 c0 -31 4 -50 12 -50 7 0 11 19 11 50 0 31 -4 50 -11 50 -8
0 -12 -19 -12 -50z"/>
<path d="M433 668 c1 -15 7 -27 12 -26 6 2 9 11 8 20 -2 14 5 16 37 13 28 -3
40 0 40 9 0 9 -16 13 -50 13 -49 0 -49 0 -47 -29z"/>
<path d="M543 668 c1 -15 7 -27 12 -26 6 2 9 11 8 21 -2 9 1 17 6 17 12 0 20
-49 9 -56 -15 -10 0 -21 30 -22 28 -1 29 1 29 47 l0 48 -48 0 c-47 0 -48 0
-46 -29z m77 2 c0 -5 -4 -10 -10 -10 -5 0 -10 5 -10 10 0 6 5 10 10 10 6 0 10
-4 10 -10z m0 -40 c0 -5 -4 -10 -10 -10 -5 0 -10 5 -10 10 0 6 5 10 10 10 6 0
10 -4 10 -10z"/>
<path d="M714 650 c0 -31 4 -50 12 -50 7 0 11 19 11 50 0 31 -4 50 -11 50 -8
0 -12 -19 -12 -50z"/>
<path d="M903 650 c0 -31 4 -50 11 -50 8 0 12 19 12 50 0 31 -4 50 -12 50 -7
0 -11 -19 -11 -50z"/>
<path d="M994 650 c0 -31 4 -50 12 -50 7 0 11 19 11 50 0 31 -4 50 -11 50 -8
0 -12 -19 -12 -50z"/>
<path d="M1034 650 c0 -31 4 -50 12 -50 7 0 11 19 11 50 0 31 -4 50 -11 50 -8
0 -12 -19 -12 -50z"/>
<path d="M1104 689 c-7 -11 12 -20 30 -13 12 5 14 -2 11 -35 -3 -29 0 -41 9
-41 9 0 13 16 13 49 0 48 0 50 -29 49 -16 -1 -31 -5 -34 -9z"/>
<path d="M1274 650 c0 -31 4 -50 12 -50 7 0 11 19 11 50 0 31 -4 50 -11 50 -8
0 -12 -19 -12 -50z"/>
<path d="M1314 650 c0 -31 4 -50 12 -50 7 0 11 19 11 50 0 31 -4 50 -11 50 -8
0 -12 -19 -12 -50z"/>
<path d="M1424 650 c0 -31 4 -50 12 -50 7 0 11 19 11 50 0 31 -4 50 -11 50 -8
0 -12 -19 -12 -50z"/>
<path d="M1463 650 c0 -31 4 -50 11 -50 8 0 12 19 12 50 0 31 -4 50 -12 50 -7
0 -11 -19 -11 -50z"/>
<path d="M1554 670 c2 -39 20 -39 23 0 2 20 -2 30 -11 30 -9 0 -13 -11 -12
-30z"/>
<path d="M1594 650 c0 -31 4 -50 12 -50 7 0 11 19 11 50 0 31 -4 50 -11 50 -8
0 -12 -19 -12 -50z"/>
<path d="M1705 662 c3 -37 2 -39 -26 -39 -16 0 -29 4 -29 9 0 4 9 8 21 8 12 0
19 5 17 12 -3 7 -15 12 -29 12 -19 0 -24 -5 -26 -30 -3 -31 -2 -31 46 -31 l48
0 0 48 c0 34 -4 49 -13 49 -9 0 -12 -12 -9 -38z"/>
<path d="M1743 670 c3 -39 21 -39 23 0 1 19 -3 30 -12 30 -9 0 -13 -10 -11
-30z"/>
<path d="M1834 650 c0 -31 4 -50 12 -50 7 0 11 19 11 50 0 31 -4 50 -11 50 -8
0 -12 -19 -12 -50z"/>
<path d="M1874 650 c0 -31 4 -50 12 -50 7 0 11 19 11 50 0 31 -4 50 -11 50 -8
0 -12 -19 -12 -50z"/>
<path d="M1944 689 c-7 -11 12 -20 30 -13 12 5 14 -2 11 -35 -3 -29 0 -41 9
-41 9 0 13 16 13 49 0 48 0 50 -29 49 -16 -1 -31 -5 -34 -9z"/>
<path d="M2265 662 c3 -37 2 -39 -26 -39 -16 0 -29 4 -29 9 0 4 9 8 21 8 12 0
19 5 17 12 -3 7 -15 12 -29 12 -19 0 -24 -5 -26 -30 -3 -31 -2 -31 46 -31 l48
0 0 48 c0 34 -4 49 -13 49 -9 0 -12 -12 -9 -38z"/>
<path d="M2303 670 c3 -39 21 -39 23 0 1 19 -3 30 -12 30 -9 0 -13 -10 -11
-30z"/>
<path d="M2394 650 c0 -31 4 -50 12 -50 7 0 11 19 11 50 0 31 -4 50 -11 50 -8
0 -12 -19 -12 -50z"/>
<path d="M1188 663 c-11 -21 -7 -63 6 -63 9 0 13 10 12 29 -1 31 -11 48 -18
34z"/>
<path d="M2028 663 c-11 -21 -7 -63 6 -63 9 0 13 10 12 29 -1 31 -11 48 -18
34z"/>
<path d="M2119 668 c-1 -2 -2 -18 -4 -35 -2 -22 2 -33 11 -33 14 0 17 57 2 66
-4 3 -8 4 -9 2z"/>
<path d="M2159 668 c-1 -2 -2 -18 -4 -35 -2 -22 2 -33 11 -33 14 0 17 57 2 66
-4 3 -8 4 -9 2z"/>
<path d="M2476 661 c-1 -3 -3 -18 -4 -32 -1 -25 1 -26 48 -26 48 0 49 0 47 28
-1 15 -6 27 -12 26 -5 -1 -9 -9 -8 -18 2 -11 -6 -16 -27 -16 -17 0 -30 4 -30
9 0 4 9 8 21 8 28 0 19 23 -9 25 -13 1 -24 -1 -26 -4z"/>
<path d="M2588 663 c-11 -21 -7 -63 6 -63 9 0 13 10 12 29 -1 31 -11 48 -18
34z"/>
</g>
</svg>
